HIERARCHY
ROOT Hips
{
	OFFSET 0.00000 0.00000 0.00000
	CHANNELS 6 Xposition Yposition Zposition Zrotation Yrotation Xrotation 
	JOINT LHipJoint
	{
		OFFSET 0 0 0
		CHANNELS 3 Zrotation Yrotation Xrotation
		JOINT LeftUpLeg
		{
			OFFSET 1.33213 -1.58186 0.78596
			CHANNELS 3 Zrotation Yrotation Xrotation
			JOINT LeftLeg
			{
				OFFSET 2.29717 -6.31144 0.00000
				CHANNELS 3 Zrotation Yrotation Xrotation
				JOINT LeftFoot
				{
					OFFSET 2.38430 -6.55082 0.00000
					CHANNELS 3 Zrotation Yrotation Xrotation
					JOINT LeftToeBase
					{
						OFFSET 0.11863 -0.32594 1.77568
						CHANNELS 3 Zrotation Yrotation Xrotation
						End Site
						{
							OFFSET 0.00000 -0.00000 0.91633
						}
					}
				}
			}
		}
	}
	JOINT RHipJoint
	{
		OFFSET 0 0 0
		CHANNELS 3 Zrotation Yrotation Xrotation
		JOINT RightUpLeg
		{
			OFFSET -1.41575 -1.58186 0.78596
			CHANNELS 3 Zrotation Yrotation Xrotation
			JOINT RightLeg
			{
				OFFSET -2.42012 -6.64922 0.00000
				CHANNELS 3 Zrotation Yrotation Xrotation
				JOINT RightFoot
				{
					OFFSET -2.47254 -6.79327 0.00000
					CHANNELS 3 Zrotation Yrotation Xrotation
					JOINT RightToeBase
					{
						OFFSET -0.15219 -0.41813 1.93430
						CHANNELS 3 Zrotation Yrotation Xrotation
						End Site
						{
							OFFSET -0.00000 -0.00000 0.99984
						}
					}
				}
			}
		}
	}
	JOINT LowerBack
	{
		OFFSET 0 0 0
		CHANNELS 3 Zrotation Yrotation Xrotation
		JOINT Spine
		{
			OFFSET -0.04717 2.09389 -0.14516
			CHANNELS 3 Zrotation Yrotation Xrotation
			JOINT Spine1
			{
				OFFSET 0.02825 2.09433 -0.11325
				CHANNELS 3 Zrotation Yrotation Xrotation
				JOINT Neck
				{
					OFFSET 0 0 0
					CHANNELS 3 Zrotation Yrotation Xrotation
					JOINT Neck1
					{
						OFFSET -0.01210 1.39029 0.12448
						CHANNELS 3 Zrotation Yrotation Xrotation
						JOINT Head
						{
							OFFSET 0.09492 1.38365 0.14559
							CHANNELS 3 Zrotation Yrotation Xrotation
							End Site
							{
								OFFSET 0.03402 1.40343 0.03708
							}
						}
					}
				}
				JOINT LeftShoulder
				{
					OFFSET 0 0 0
					CHANNELS 3 Zrotation Yrotation Xrotation
					JOINT LeftArm
					{
						OFFSET 2.83352 1.10671 -0.20481
						CHANNELS 3 Zrotation Yrotation Xrotation
						JOINT LeftForeArm
						{
							OFFSET 4.77195 -0.00000 -0.00000
							CHANNELS 3 Zrotation Yrotation Xrotation
							JOINT LeftHand
							{
								OFFSET 2.98444 -0.00000 0.00000
								CHANNELS 3 Zrotation Yrotation Xrotation
								JOINT LeftFingerBase
								{
									OFFSET 0 0 0
									CHANNELS 3 Zrotation Yrotation Xrotation
									JOINT LeftHandIndex1
									{
										OFFSET 0.99228 -0.00000 0.00000
										CHANNELS 3 Zrotation Yrotation Xrotation
										End Site
										{
											OFFSET 0.80001 -0.00000 0.00000
										}
									}
								}
								JOINT LThumb
								{
									OFFSET 0 0 0
									CHANNELS 3 Zrotation Yrotation Xrotation
									End Site
									{
										OFFSET 0.81222 -0.00000 0.81222
									}
								}
							}
						}
					}
				}
				JOINT RightShoulder
				{
					OFFSET 0 0 0
					CHANNELS 3 Zrotation Yrotation Xrotation
					JOINT RightArm
					{
						OFFSET -3.23760 1.11106 0.06723
						CHANNELS 3 Zrotation Yrotation Xrotation
						JOINT RightForeArm
						{
							OFFSET -4.62052 -0.00000 0.00000
							CHANNELS 3 Zrotation Yrotation Xrotation
							JOINT RightHand
							{
								OFFSET -2.95332 -0.00000 0.00000
								CHANNELS 3 Zrotation Yrotation Xrotation
								JOINT RightFingerBase
								{
									OFFSET 0 0 0
									CHANNELS 3 Zrotation Yrotation Xrotation
									JOINT RightHandIndex1
									{
										OFFSET -0.99096 -0.00000 0.00000
										CHANNELS 3 Zrotation Yrotation Xrotation
										End Site
										{
											OFFSET -0.79893 -0.00000 0.00000
										}
									}
								}
								JOINT RThumb
								{
									OFFSET 0 0 0
									CHANNELS 3 Zrotation Yrotation Xrotation
									End Site
									{
										OFFSET -0.81113 -0.00000 0.81113
									}
								}
							}
						}
					}
				}
			}
		}
	}
}
MOTION
Frames: 13
Frame Time: .0083333
0.3056 16.4533 7.0806 -180.3440 -3.0807 -171.8610 0.0000 0.0000 0.0000 -22.6234 0.0418 -18.2613 1.1473 6.8014 19.1284 -0.7561 -16.1972 -0.0384 0.5197 -4.6202 -12.8283 0.0000 0.0000 0.0000 17.6001 -1.7230 -28.9937 -10.7440 -17.8075 61.9474 -0.1927 9.4670 -9.6119 -1.4518 -7.6162 21.5543 -3.7243 -1.4082 -8.9053 -0.1353 -1.4608 1.5543 1.7389 -0.8627 6.7310 -5.5746 -1.8359 0.0059 9.5501 -1.7153 -6.7030 4.1991 -0.7928 -2.0278 0.0000 0.0000 0.0000 -88.9526 -4.3042 8.3189 7.5985 -12.8999 -0.8603 -0.0000 -0.0000 39.9295 9.1822 8.0906 1.3032 -7.1250 0.0000 -0.0000 -15.0370 37.7700 2.7514 0.0000 0.0000 0.0000 90.7555 -5.2922 -3.4057 -12.7133 20.8657 -2.3502 0.0000 0.0000 35.7356 -2.3182 -8.6306 0.3481 7.1250 -0.0000 -0.0000 20.8134 -37.8030 3.8926
0.2900 16.4386 6.9185 -180.1830 -3.3318 -171.6860 0.0000 0.0000 0.0000 -22.3910 -0.3890 -17.9399 1.2179 7.0003 19.7162 -0.7350 -16.3709 -1.0233 0.5550 -4.7721 -13.2598 0.0000 0.0000 0.0000 17.5847 -0.7705 -30.7639 -10.5741 -17.7203 61.3905 -0.2613 9.8941 -10.6991 -1.5588 -7.8792 22.3479 -3.4375 -1.4634 -8.9653 -0.1434 -1.5630 1.5557 1.5527 -0.9016 6.7638 -5.4443 -1.9051 -0.1185 9.6161 -1.8173 -6.4573 4.1901 -0.8441 -1.9149 0.0000 0.0000 0.0000 -88.6799 -5.1272 7.9967 7.4402 -12.6414 -0.8253 -0.0000 -0.0000 40.8795 9.0815 8.1091 1.2916 -7.1250 0.0000 -0.0000 -15.1247 37.7812 2.7641 0.0000 0.0000 0.0000 91.0649 -5.3611 -4.3038 -12.6477 20.7688 -2.3269 0.0000 0.0000 35.9516 -2.0750 -8.5995 0.3104 7.1250 -0.0000 -0.0000 21.0020 -37.7562 3.9576
0.2783 16.4203 6.7545 -179.8280 -3.7654 -171.5680 0.0000 0.0000 0.0000 -21.9439 -0.7944 -17.5582 1.2809 7.1723 20.2268 -0.7195 -16.5986 -1.8681 0.5672 -4.8234 -13.4055 0.0000 0.0000 0.0000 17.8114 0.1138 -32.3375 -10.2393 -17.5422 60.2852 -0.3579 9.8690 -11.8565 -1.1109 -6.6962 18.8183 -3.1109 -1.6396 -9.0046 0.0514 -1.8418 1.6021 1.5304 -1.0294 6.8462 -5.5282 -1.8842 -0.3699 9.7078 -1.8001 -6.1806 4.2294 -0.8285 -1.7782 0.0000 0.0000 0.0000 -88.7082 -5.9984 7.3055 7.3528 -12.4984 -0.8063 -0.0000 -0.0000 41.8081 8.9368 8.1557 1.2780 -7.1250 0.0000 -0.0000 -15.2552 37.8168 2.7756 0.0000 0.0000 0.0000 91.0478 -5.4373 -4.5212 -12.6333 20.7476 -2.3218 0.0000 0.0000 35.9267 -1.6104 -8.5163 0.2385 7.1250 -0.0000 -0.0000 21.3544 -37.6448 4.0941
0.2742 16.4108 6.5918 -179.7570 -4.3004 -171.4550 0.0000 0.0000 0.0000 -21.8055 -1.0791 -17.1423 1.3287 7.2996 20.6059 -0.7242 -16.9733 -2.4997 0.5594 -4.7906 -13.3122 0.0000 0.0000 0.0000 17.6785 0.9567 -33.7796 -9.7626 -17.2742 58.6918 -0.4506 9.4601 -12.7769 -0.7397 -5.4945 15.3244 -3.1672 -1.8765 -8.9191 0.2099 -2.1638 1.5831 1.6825 -1.1916 6.8030 -5.6710 -1.8681 -0.5058 9.8438 -1.7942 -5.9120 4.2994 -0.8217 -1.6642 0.0000 0.0000 0.0000 -88.7194 -6.5378 7.6624 7.4485 -12.6550 -0.8271 -0.0000 -0.0000 41.4951 8.7056 8.3779 1.2780 -7.1250 0.0000 -0.0000 -15.4980 38.0172 2.7438 0.0000 0.0000 0.0000 90.9620 -5.6573 -4.3838 -12.6321 20.7458 -2.3213 0.0000 0.0000 35.8240 -1.0126 -8.4537 0.1489 7.1250 -0.0000 -0.0000 21.8189 -37.5431 4.2525
0.2768 16.4029 6.4290 -179.8280 -4.7932 -171.3550 0.0000 0.0000 0.0000 -21.8063 -1.3814 -16.5173 1.3399 7.3292 20.6944 -0.7159 -17.1504 -2.9783 0.5361 -4.6916 -13.0309 0.0000 0.0000 0.0000 17.3864 1.7330 -34.9806 -9.1591 -16.9090 56.6388 -0.5455 8.8479 -13.6511 -0.5738 -4.8508 13.4834 -3.3819 -2.0595 -8.7350 0.3006 -2.3972 1.5298 1.8698 -1.3142 6.6683 -5.6645 -1.9282 -0.5769 9.8897 -1.8833 -5.7719 4.3110 -0.8652 -1.5971 0.0000 0.0000 0.0000 -88.6090 -6.8680 9.1740 7.6610 -13.0018 -0.8743 -0.0000 -0.0000 39.9879 8.3865 8.6768 1.2741 -7.1250 0.0000 -0.0000 -15.8332 38.2851 2.6991 0.0000 0.0000 0.0000 90.9547 -5.9869 -4.1942 -12.6727 20.8058 -2.3358 0.0000 0.0000 35.6749 -0.5378 -8.2429 0.0771 7.1250 -0.0000 -0.0000 22.1399 -37.3134 4.4569
0.2794 16.4002 6.2613 -179.6700 -5.3011 -171.3490 0.0000 0.0000 0.0000 -21.5661 -1.6530 -15.6149 1.3101 7.2504 20.4594 -0.6966 -17.1511 -3.3294 0.4831 -4.4571 -12.3664 0.0000 0.0000 0.0000 17.3558 2.3615 -35.8300 -8.4409 -16.4342 54.1357 -0.6475 8.1736 -14.5895 -0.4347 -4.2311 11.7278 -3.3057 -2.1956 -8.5186 0.4268 -2.6022 1.5147 1.9369 -1.4125 6.5438 -5.6110 -2.0006 -0.5436 9.9040 -1.9671 -5.8894 4.3085 -0.9078 -1.6345 0.0000 0.0000 0.0000 -88.4998 -7.2025 10.7265 7.8514 -13.3117 -0.9176 -0.0000 -0.0000 38.4986 8.3695 8.7867 1.2875 -7.1250 0.0000 -0.0000 -15.8733 38.3905 2.6639 0.0000 0.0000 0.0000 90.9792 -6.4104 -3.8151 -12.7992 20.9924 -2.3809 0.0000 0.0000 35.3314 -0.2435 -8.0751 0.0342 7.1250 -0.0000 -0.0000 22.3272 -37.1370 4.6033
0.2808 16.4071 6.0906 -179.5510 -5.8618 -171.3350 0.0000 0.0000 0.0000 -21.3916 -1.8820 -14.5756 1.2487 7.0850 19.9674 -0.6772 -17.1464 -3.6633 0.4344 -4.2295 -11.7232 0.0000 0.0000 0.0000 17.2407 2.8497 -36.4844 -7.6393 -15.8475 51.2529 -0.7221 7.4672 -15.2537 -0.5436 -4.7238 13.1225 -3.2513 -2.3601 -8.3780 0.5443 -2.8389 1.5380 1.9996 -1.5288 6.5065 -5.6304 -2.0570 -0.4728 10.0249 -2.0127 -6.1030 4.3617 -0.9305 -1.7128 0.0000 0.0000 0.0000 -88.4264 -7.5573 12.1526 8.0624 -13.6540 -0.9668 -0.0000 -0.0000 37.0977 8.5972 8.6877 1.3082 -7.1250 0.0000 -0.0000 -15.6602 38.3109 2.6576 0.0000 0.0000 0.0000 91.0382 -6.7780 -3.4119 -12.9715 21.2455 -2.4430 0.0000 0.0000 34.9302 -0.0218 -8.2368 0.0031 7.1250 -0.0000 -0.0000 22.5515 -37.2705 4.5764
0.2872 16.4130 5.9171 -179.4180 -6.3124 -171.2490 0.0000 0.0000 0.0000 -21.2034 -1.8211 -13.5415 1.1520 6.8147 19.1676 -0.6714 -17.1975 -3.8446 0.4184 -4.1520 -11.5048 0.0000 0.0000 0.0000 17.1499 3.3737 -37.0221 -6.7868 -15.1497 48.0632 -0.7670 6.6084 -15.6350 -0.7338 -5.4730 15.2626 -3.2371 -2.5129 -8.3984 0.6783 -3.0511 1.5867 2.0992 -1.6367 6.5904 -5.7207 -2.0973 -0.4709 10.2269 -2.0306 -6.2810 4.4568 -0.9360 -1.7685 0.0000 -0.0000 0.0000 -88.3791 -7.9811 13.6103 8.3028 -14.0425 -1.0243 -0.0000 -0.0000 35.6078 8.6952 8.6674 1.3203 -7.1250 0.0000 -0.0000 -15.5737 38.2981 2.6471 0.0000 -0.0000 0.0000 91.1023 -6.9125 -3.3963 -13.0084 21.2995 -2.4563 0.0000 0.0000 34.9878 -0.0921 -8.3190 0.0133 7.1250 -0.0000 -0.0000 22.5192 -37.3516 4.5208
0.2976 16.4184 5.7388 -179.4030 -6.6253 -171.2050 0.0000 0.0000 0.0000 -21.1339 -1.4104 -12.3713 1.0238 6.4366 18.0565 -0.6836 -17.3035 -3.8064 0.4071 -4.0961 -11.3472 0.0000 0.0000 0.0000 17.0244 3.7701 -37.3599 -5.9160 -14.3464 44.6435 -0.7973 5.7991 -15.9148 -0.6498 -5.1564 14.3553 -3.3498 -2.6351 -8.4303 0.7750 -3.2065 1.6489 2.2380 -1.7215 6.6975 -5.7443 -2.1393 -0.5059 10.2990 -2.0716 -6.3475 4.4886 -0.9542 -1.7797 0.0000 -0.0000 0.0000 -88.3241 -8.3100 15.3711 8.6007 -14.5217 -1.0978 -0.0000 -0.0000 33.9438 8.7061 8.8710 1.3528 -7.1250 0.0000 -0.0000 -15.6126 38.4970 2.5753 0.0000 -0.0000 0.0000 91.1891 -6.9765 -3.8664 -12.9398 21.1989 -2.4315 0.0000 0.0000 35.4198 -0.2997 -8.1285 0.0424 7.1250 -0.0000 -0.0000 22.2976 -37.1904 4.5650
0.3092 16.4257 5.5547 -179.6600 -6.8982 -171.1240 0.0000 0.0000 0.0000 -21.3390 -0.9440 -11.0722 0.8805 5.9818 16.7317 -0.7074 -17.4324 -3.6081 0.3695 -3.9045 -10.8082 0.0000 0.0000 0.0000 16.6530 3.9861 -37.6143 -5.0570 -13.4477 41.0684 -0.7997 5.3519 -15.9417 -0.5122 -4.5873 12.7352 -3.7682 -2.7634 -8.4892 0.8217 -3.3331 1.6870 2.4989 -1.8032 6.8098 -5.6261 -2.1885 -0.5745 10.1966 -2.1354 -6.3824 4.4271 -0.9851 -1.7742 0.0000 -0.0000 0.0000 -88.3101 -8.5390 17.0781 8.9246 -15.0402 -1.1805 -0.0000 -0.0000 32.4995 8.7650 9.0625 1.3912 -7.1250 0.0000 -0.0000 -15.6088 38.6876 2.4992 0.0000 -0.0000 0.0000 91.2755 -7.0932 -4.4674 -12.8959 21.1345 -2.4156 0.0000 0.0000 35.7054 -0.4408 -8.1218 0.0623 7.1250 -0.0000 -0.0000 22.1828 -37.1943 4.5361
0.3209 16.4334 5.3657 -179.7720 -7.1633 -170.9550 0.0000 0.0000 0.0000 -21.3579 -0.4404 -9.7616 0.7244 5.4384 15.1633 -0.7400 -17.5319 -3.2069 0.3229 -3.6525 -10.1012 0.0000 0.0000 0.0000 16.3994 4.2753 -37.8212 -4.2355 -12.4674 37.4061 -0.7837 5.5133 -15.7771 -0.4183 -4.1511 11.5022 -3.9089 -2.8239 -8.6346 0.8138 -3.3928 1.6495 2.5549 -1.8380 6.8662 -5.4950 -2.2344 -0.5029 10.2557 -2.1710 -6.5393 4.4271 -1.0051 -1.8364 0.0000 0.0000 0.0000 -88.1695 -8.6668 18.7808 9.2399 -15.5419 -1.2636 -0.0000 -0.0000 31.2124 8.8711 9.0471 1.4059 -7.1250 0.0000 -0.0000 -15.5164 38.6805 2.4864 0.0000 0.0000 0.0000 91.5220 -7.2501 -5.1449 -12.8293 21.0365 -2.3916 0.0000 0.0000 35.8059 -0.5459 -8.3954 0.0797 7.1250 -0.0000 -0.0000 22.1775 -37.4551 4.3827
0.3341 16.4404 5.1717 -179.7650 -7.4236 -170.8580 0.0000 0.0000 0.0000 -21.2286 0.2023 -8.2688 0.5598 4.7922 13.3169 -0.7641 -17.4977 -2.7071 0.3022 -3.5343 -9.7700 0.0000 0.0000 0.0000 16.2744 4.5739 -37.7959 -3.4854 -11.4422 33.7861 -0.6726 6.0895 -14.6273 -0.5021 -4.5424 12.6079 -3.8469 -2.8700 -8.7893 0.7989 -3.4543 1.6306 2.4885 -1.8658 6.9345 -5.5227 -2.2711 -0.4329 10.4397 -2.1979 -6.6134 4.5027 -1.0194 -1.8700 -0.0000 0.0000 0.0000 -87.9761 -8.7061 20.5974 9.6033 -16.1166 -1.3627 -0.0000 -0.0000 29.8029 8.8952 8.9905 1.4011 -7.1250 0.0000 -0.0000 -15.4827 38.6271 2.5016 -0.0000 0.0000 0.0000 91.7923 -7.2967 -6.0585 -12.6638 20.7927 -2.3326 0.0000 0.0000 36.1165 -0.6323 -8.4160 0.0925 7.1250 -0.0000 -0.0000 22.1140 -37.4805 4.3538
0.3507 16.4479 4.9725 -179.7790 -7.6644 -170.7940 0.0000 0.0000 0.0000 -21.1018 0.9136 -6.6467 0.4047 4.0843 11.3138 -0.7753 -17.3387 -2.1895 0.3138 -3.6011 -9.9571 0.0000 0.0000 0.0000 16.1477 4.8840 -37.5962 -2.8312 -10.4167 30.3369 -0.6056 6.8895 -13.9644 -0.5133 -4.5922 12.7490 -3.8840 -2.9714 -8.9918 0.8759 -3.5822 1.6485 2.5602 -1.9338 7.0873 -5.7022 -2.2826 -0.5040 10.5355 -2.2175 -6.5350 4.5707 -1.0249 -1.8272 -0.0000 -0.0000 0.0000 -87.9578 -8.8183 21.9843 9.8992 -16.5817 -1.4460 -0.0000 -0.0000 28.7443 8.7930 8.9473 1.3781 -7.1250 0.0000 -0.0000 -15.5581 38.5776 2.5340 -0.0000 -0.0000 0.0000 91.8739 -7.2563 -6.9555 -12.4856 20.5289 -2.2697 0.0000 0.0000 36.6257 -0.6135 -8.2314 0.0878 7.1250 -0.0000 -0.0000 22.0759 -37.3081 4.4453
